<svg id="Слой_1" data-name="Слой 1" xmlns="http://www.w3.org/2000/svg" viewBox="0 0 329.02 134.14"><defs><style>.cls-1{fill:#fff;}</style></defs><path class="cls-1" d="M152.55,138.13a4.84,4.84,0,0,1-4,2.08H121.62a4.88,4.88,0,0,1-4.57-3.2l-6.3-17.5a3.33,3.33,0,1,1,4-3.27,3.39,3.39,0,0,1-.71,2.07l6.31,17.52a1.38,1.38,0,0,0,1.3.91h26.95a1.38,1.38,0,0,0,1.29-1.86L104,12a1.39,1.39,0,0,0-1.3-.9H79.26a1.35,1.35,0,0,0-1.12.58A1.38,1.38,0,0,0,78,13l12.47,36a3.32,3.32,0,1,1-3.27,1.17l-12.48-36a4.85,4.85,0,0,1,4.58-6.44h23.45a4.87,4.87,0,0,1,4.55,3.16l45.85,122.83a4.85,4.85,0,0,1-.56,4.47M66.49,51a4.85,4.85,0,0,0-9.15-.19L34.13,113a3.34,3.34,0,1,0,3.25,1.22L60.59,52.05a1.38,1.38,0,0,1,2.61.05l27.1,82.83A1.38,1.38,0,0,1,89,136.74H80.75a3.34,3.34,0,1,0,0,3.47H89a4.84,4.84,0,0,0,4.61-6.36Zm60.69,70a3.29,3.29,0,1,0,3.28-1.15L100.65,34.44a3.3,3.3,0,1,0-3.28,1.14Zm-61,7.06a3.3,3.3,0,0,0-2.81,1.57H46.6L57.52,99.36a3.3,3.3,0,1,0-4-3.23,3.23,3.23,0,0,0,.73,2.06L42.49,130.82a1.75,1.75,0,0,0,1.64,2.33H63.4a3.3,3.3,0,1,0,2.81-5Z" transform="translate(-31.43 -7.67)"/><path class="cls-1" d="M221.33,54.77l-1.84-8.53h-7.88l-1.85,8.53h-7.3l8.59-35.46h8.8l8.74,35.46Zm-2.88-14.45-1.92-9.39c-.13-.77-.25-1.53-.37-2.28s-.24-1.46-.34-2.15-.2-1.32-.28-1.92c0,.56-.12,1.19-.22,1.86s-.21,1.39-.34,2.14-.27,1.5-.44,2.25l-1.89,9.49Z" transform="translate(-31.43 -7.67)"/><path class="cls-1" d="M262.22,19.31l-8.85,35.46h-7.86l-8.78-35.46h7.11l4.26,20q.26,1.13.51,2.61c.18,1,.34,2,.49,3s.26,1.82.34,2.53c.1-.71.22-1.55.37-2.53s.33-2,.51-3,.36-1.86.53-2.62l4.31-20Z" transform="translate(-31.43 -7.67)"/><path class="cls-1" d="M287.88,54.77,286,46.24h-7.88l-1.84,8.53H269l8.58-35.46h8.81l8.73,35.46ZM285,40.32l-1.92-9.39c-.13-.77-.25-1.53-.37-2.28s-.24-1.46-.34-2.15-.2-1.32-.28-1.92c-.05.56-.12,1.19-.22,1.86s-.21,1.39-.34,2.14-.27,1.5-.44,2.25l-1.89,9.49Z" transform="translate(-31.43 -7.67)"/><path class="cls-1" d="M306.45,19.31h9.34q5.47,0,8.21,2.15c1.82,1.43,2.73,3.63,2.73,6.58a11.29,11.29,0,0,1-.57,3.73,7,7,0,0,1-1.64,2.7A5.67,5.67,0,0,1,322,36v.24A7.33,7.33,0,0,1,325,37.8a6.29,6.29,0,0,1,1.76,2.76,12.54,12.54,0,0,1,.56,3.93A11.35,11.35,0,0,1,326.11,50a8.76,8.76,0,0,1-3.6,3.56,11.79,11.79,0,0,1-5.63,1.26H306.45Zm6.82,14.36h2.52a3.8,3.8,0,0,0,3.07-1.19,5.26,5.26,0,0,0,1-3.49,4.22,4.22,0,0,0-1-3.07,4.24,4.24,0,0,0-3.13-1.05h-2.42Zm0,5.41v10h3.08a3.7,3.7,0,0,0,3-1.26,6,6,0,0,0,1-3.83,6.22,6.22,0,0,0-.51-2.66,3.7,3.7,0,0,0-1.47-1.65,4.53,4.53,0,0,0-2.36-.57Z" transform="translate(-31.43 -7.67)"/><path class="cls-1" d="M339.82,54.77V19.31h6.81V54.77Z" transform="translate(-31.43 -7.67)"/><path class="cls-1" d="M224,88.31v23a13.51,13.51,0,0,1-1.62,6.61,11.52,11.52,0,0,1-4.87,4.67,17.58,17.58,0,0,1-8.21,1.72q-7,0-10.72-3.59a12.65,12.65,0,0,1-3.69-9.51V88.31h7.5V110c0,2.93.59,5,1.79,6.16a7.28,7.28,0,0,0,5.31,1.77,8.27,8.27,0,0,0,4-.85,5,5,0,0,0,2.26-2.62,11.85,11.85,0,0,0,.73-4.51V88.31Z" transform="translate(-31.43 -7.67)"/><path class="cls-1" d="M264.1,123.77h-9.56L239.12,97h-.22c.06,1.11.12,2.24.17,3.37s.1,2.26.14,3.38l.15,3.39v16.68h-6.72V88.31h9.49l15.4,26.56h.17q-.06-1.65-.12-3.27c-.05-1.09-.1-2.17-.14-3.25s-.07-2.17-.11-3.25V88.31h6.77Z" transform="translate(-31.43 -7.67)"/><path class="cls-1" d="M273,123.77V88.31h7.52v35.46Z" transform="translate(-31.43 -7.67)"/><path class="cls-1" d="M321.65,106a25.56,25.56,0,0,1-1,7.45,15.82,15.82,0,0,1-3.1,5.79,13.36,13.36,0,0,1-5.25,3.72,22.37,22.37,0,0,1-15,0,13.47,13.47,0,0,1-5.26-3.72,15.91,15.91,0,0,1-3.09-5.8,25.79,25.79,0,0,1-1-7.49,23.69,23.69,0,0,1,1.81-9.6A13.65,13.65,0,0,1,295.26,90a18.34,18.34,0,0,1,9.55-2.25,18.13,18.13,0,0,1,9.5,2.25,13.74,13.74,0,0,1,5.53,6.36A23.77,23.77,0,0,1,321.65,106Zm-25.88,0a19.58,19.58,0,0,0,.93,6.39,8.32,8.32,0,0,0,2.92,4.12,8.56,8.56,0,0,0,5.14,1.44,8.67,8.67,0,0,0,5.2-1.44,8.15,8.15,0,0,0,2.89-4.12,19.88,19.88,0,0,0,.91-6.39q0-5.58-2.08-8.79T304.81,94a8.67,8.67,0,0,0-5.18,1.45,8.23,8.23,0,0,0-2.93,4.12A19.64,19.64,0,0,0,295.77,106Z" transform="translate(-31.43 -7.67)"/><path class="cls-1" d="M360.45,123.77h-9.56L335.46,97h-.21c.06,1.11.12,2.24.17,3.37s.09,2.26.14,3.38l.15,3.39v16.68H329V88.31h9.48l15.4,26.56H354q0-1.65-.12-3.27c-.05-1.09-.09-2.17-.13-3.25s-.08-2.17-.11-3.25V88.31h6.77Z" transform="translate(-31.43 -7.67)"/><path class="cls-1" d="M212.63,75V64H215V75Z" transform="translate(-31.43 -7.67)"/><path class="cls-1" d="M222.13,75H220V65.85h-2V64h6.16v1.83h-2Z" transform="translate(-31.43 -7.67)"/><path class="cls-1" d="M241.11,71.8a3.71,3.71,0,0,1-.4,1.76,3,3,0,0,1-1.12,1.19,3.36,3.36,0,0,1-1.71.42,6.46,6.46,0,0,1-.89,0,4.66,4.66,0,0,1-.84-.19,5.42,5.42,0,0,1-.83-.35V72.42a4.91,4.91,0,0,0,1.25.59,3.88,3.88,0,0,0,1.19.21,1.27,1.27,0,0,0,.68-.16,1,1,0,0,0,.4-.43A1.48,1.48,0,0,0,239,72a1.83,1.83,0,0,0-.11-.64,1.61,1.61,0,0,0-.44-.55,6.62,6.62,0,0,0-.93-.63,8.78,8.78,0,0,1-.87-.59A3.44,3.44,0,0,1,236,69a2.51,2.51,0,0,1-.42-.85,3.84,3.84,0,0,1-.15-1.14,3.41,3.41,0,0,1,.37-1.63,2.67,2.67,0,0,1,1.07-1.09,3.46,3.46,0,0,1,1.69-.38,4.89,4.89,0,0,1,1.32.18,5.35,5.35,0,0,1,1.24.52l-.58,1.86a6,6,0,0,0-1-.48,3,3,0,0,0-.89-.15,1.28,1.28,0,0,0-.61.14,1,1,0,0,0-.37.38,1.2,1.2,0,0,0-.12.55,1.62,1.62,0,0,0,.12.66,1.38,1.38,0,0,0,.46.53,8.61,8.61,0,0,0,1,.62,6,6,0,0,1,1.15.85,3,3,0,0,1,.92,2.28Z" transform="translate(-31.43 -7.67)"/><path class="cls-1" d="M255.38,69.51a10.64,10.64,0,0,1-.24,2.36,5.44,5.44,0,0,1-.72,1.78,3.29,3.29,0,0,1-1.22,1.13,3.61,3.61,0,0,1-1.72.39,3.65,3.65,0,0,1-1.73-.39,3.24,3.24,0,0,1-1.22-1.14,5.69,5.69,0,0,1-.72-1.79,10.58,10.58,0,0,1-.24-2.36,9.35,9.35,0,0,1,.44-3.11,3.89,3.89,0,0,1,1.32-1.89,3.51,3.51,0,0,1,2.15-.64,3.43,3.43,0,0,1,2.19.68,4,4,0,0,1,1.29,2A9.61,9.61,0,0,1,255.38,69.51Zm-5.62,0a9.68,9.68,0,0,0,.19,2.11,2.89,2.89,0,0,0,.58,1.27,1.25,1.25,0,0,0,.95.43,1.22,1.22,0,0,0,1-.42,2.6,2.6,0,0,0,.57-1.26,9.62,9.62,0,0,0,.2-2.13,7.44,7.44,0,0,0-.43-2.88,1.39,1.39,0,0,0-1.29-.95,1.25,1.25,0,0,0-.95.43,3,3,0,0,0-.58,1.28A9.72,9.72,0,0,0,249.76,69.51Z" transform="translate(-31.43 -7.67)"/><path class="cls-1" d="M262.13,75V64h2.12v9.17h2.92V75Z" transform="translate(-31.43 -7.67)"/><path class="cls-1" d="M278.79,64V71.4a4.92,4.92,0,0,1-.39,2.1,2.72,2.72,0,0,1-1.15,1.26,3.87,3.87,0,0,1-1.88.41,3.27,3.27,0,0,1-2.51-.92,3.9,3.9,0,0,1-.88-2.8V64h2.11v7.35a2.6,2.6,0,0,0,.33,1.5,1.12,1.12,0,0,0,1,.45,1.26,1.26,0,0,0,.73-.2,1.1,1.1,0,0,0,.44-.62,3.53,3.53,0,0,0,.15-1.14V64Z" transform="translate(-31.43 -7.67)"/><path class="cls-1" d="M289.1,75h-2.33V66h-3V64h8.31V66h-3Z" transform="translate(-31.43 -7.67)"/><path class="cls-1" d="M295.68,75V64H298V75Z" transform="translate(-31.43 -7.67)"/><path class="cls-1" d="M312.2,69.51a7.91,7.91,0,0,1-.32,2.31,4.94,4.94,0,0,1-1,1.8,4.12,4.12,0,0,1-1.63,1.15,7,7,0,0,1-4.66,0A4.2,4.2,0,0,1,303,73.62a5,5,0,0,1-1-1.8,8.1,8.1,0,0,1-.32-2.33,7.32,7.32,0,0,1,.56-3,4.21,4.21,0,0,1,1.73-2,5.68,5.68,0,0,1,3-.7,5.57,5.57,0,0,1,2.94.7,4.25,4.25,0,0,1,1.72,2A7.42,7.42,0,0,1,312.2,69.51Zm-8,0a6.12,6.12,0,0,0,.29,2,2.59,2.59,0,0,0,.91,1.28,2.63,2.63,0,0,0,1.59.45,2.67,2.67,0,0,0,1.61-.45,2.58,2.58,0,0,0,.9-1.28,6.14,6.14,0,0,0,.28-2,5,5,0,0,0-.64-2.73,2.37,2.37,0,0,0-2.13-1,2.67,2.67,0,0,0-1.61.45,2.55,2.55,0,0,0-.91,1.28A6.1,6.1,0,0,0,304.17,69.51Z" transform="translate(-31.43 -7.67)"/><path class="cls-1" d="M326.21,75h-3l-4.79-8.32h-.07c0,.35,0,.7.06,1s0,.7,0,1,0,.7.05,1V75h-2.09V64h2.95l4.77,8.24h.06c0-.34,0-.68,0-1s0-.68,0-1,0-.68,0-1V64h2.1Z" transform="translate(-31.43 -7.67)"/><path class="cls-1" d="M335.4,72a2.87,2.87,0,0,1-1.86,2.81,5.52,5.52,0,0,1-2.2.39,7.62,7.62,0,0,1-2.16-.29,6,6,0,0,1-.95-.37V72.34a16.49,16.49,0,0,0,1.62.63,5.52,5.52,0,0,0,1.67.28,2.41,2.41,0,0,0,.93-.15,1,1,0,0,0,.5-.42,1.08,1.08,0,0,0,.16-.6,1,1,0,0,0-.28-.71,3.25,3.25,0,0,0-.76-.55l-1.1-.55c-.25-.12-.53-.26-.83-.44a4.62,4.62,0,0,1-.86-.63,3,3,0,0,1-.66-.92,2.8,2.8,0,0,1-.26-1.29,3,3,0,0,1,.45-1.68,2.79,2.79,0,0,1,1.29-1.07,4.82,4.82,0,0,1,2-.38,6.76,6.76,0,0,1,1.64.2,11.49,11.49,0,0,1,1.63.58l-.76,1.81c-.5-.2-1-.36-1.36-.48A4.6,4.6,0,0,0,332,65.8a1.86,1.86,0,0,0-.75.14,1,1,0,0,0-.62,1,1,1,0,0,0,.23.66,2.37,2.37,0,0,0,.69.51c.31.17.69.36,1.15.58a8.57,8.57,0,0,1,1.44.83,3.2,3.2,0,0,1,.93,1A3,3,0,0,1,335.4,72Z" transform="translate(-31.43 -7.67)"/></svg>